<svg width="20" height="20" viewBox="0 0 20 20" fill="none" xmlns="http://www.w3.org/2000/svg">
<path d="M7.43891 16.5059C7.43755 16.5379 7.42871 16.5679 7.42871 16.6002C7.42871 17.9257 8.57997 19.0002 10.0001 19.0002C11.4203 19.0002 12.5716 17.9257 12.5716 16.6002C12.5716 16.5679 12.5627 16.5379 12.5614 16.5059H7.43891Z" fill="#B28B01"/>
<path d="M12.5714 16.6002C12.5714 17.9257 11.4202 19.0002 10 19.0002L10.0001 16.5059H12.5612C12.5626 16.5379 12.5714 16.5679 12.5714 16.6002Z" fill="#8C6E00"/>
<path d="M10 16.9999C4.53278 16.9999 1 15.9006 1 14.1999C1 13.3991 1.54681 12.8393 2.12563 12.2472C2.8365 11.5198 3.57143 10.7675 3.57143 9.39992V6.99995C3.57143 3.63552 6.39523 1 10 1C13.6048 1 16.4286 3.63552 16.4286 6.99995V9.39992C16.4286 10.7675 17.1635 11.5198 17.8744 12.2472C18.4532 12.8393 19 13.3991 19 14.1999C19 15.9006 15.4672 16.9999 10 16.9999Z" fill="#FEC601"/>
<path d="M16.4286 6.99995C16.4286 3.63552 13.6048 1 10 1V16.9999C15.4672 16.9999 19 15.9006 19 14.1999C19 13.3991 18.4532 12.8393 17.8744 12.2472C17.1635 11.5198 16.4286 10.7675 16.4286 9.39992V6.99995Z" fill="#D8A901"/>
</svg>
