<svg width="225" height="102" viewBox="0 0 225 102" fill="none" xmlns="http://www.w3.org/2000/svg">
<g clip-path="url(#clip0_873_2617)">
<circle cx="40" cy="55" r="55" fill="#E6F7ED"/>
<path d="M40 95V82.4371H59.2794V26.5723H43.3943V16.9497C47.6484 16.1478 51.3594 15.2123 54.5274 14.1431C57.6954 12.9848 60.6371 11.6038 63.3525 10H75.0287V82.4371H92V95H40Z" fill="#B5E2CB"/>
<path d="M7.224 75.248V66.176H-1.368V62.144H7.224V53.072H11.4V62.144H19.992V66.176H11.4V75.248H7.224ZM25.1614 80V75.488H31.9774V55.424H26.3614V51.968C27.8654 51.68 29.1774 51.344 30.2974 50.96C31.4174 50.544 32.4574 50.048 33.4174 49.472H37.5454V75.488H43.5454V80H25.1614Z" fill="#20A164"/>
<path d="M105.91 111.789C105.91 111.949 105.944 112.069 106.014 112.189C106.221 112.469 106.533 112.309 106.81 112.069C106.914 111.989 107.053 111.909 107.192 111.829C108.578 110.908 111.488 108.825 113.983 108.665C114.122 108.665 114.226 108.625 114.329 108.625C115.715 109.026 117.101 109.706 117.101 109.706L116.894 109.867C117.725 110.467 118.21 111.108 118.21 111.108C118.21 111.108 121.779 108.225 121.052 107.624C120.324 107.024 119.458 105.342 118.938 104.061C118.765 103.62 118.661 103.1 118.487 102.659C118.384 102.339 118.21 102.098 117.968 101.898C117.379 101.418 116.582 101.338 115.889 101.658C115.542 101.818 115.265 102.058 114.953 102.299C113.983 103.059 112.944 103.74 111.835 104.261C110.761 104.741 109.617 105.062 108.612 105.742C106.88 106.903 105.771 109.386 105.91 111.789Z" fill="#40201A"/>
<path d="M105.91 111.789C105.91 111.949 105.944 112.069 106.014 112.189C106.221 112.469 106.533 112.309 106.81 112.069C106.914 111.989 107.053 111.909 107.192 111.829C107.226 109.346 108.578 107.544 110.137 106.663C111.869 105.662 114.537 105.022 115.334 104.101C116.062 103.26 117.309 102.699 118.522 102.659C118.418 102.339 118.245 102.098 118.002 101.898C117.413 101.418 116.616 101.338 115.923 101.658C115.577 101.818 115.3 102.058 114.988 102.299C114.018 103.059 112.978 103.74 111.869 104.261C110.795 104.741 109.652 105.062 108.647 105.742C106.88 106.903 105.771 109.386 105.91 111.789Z" fill="#FF8F40"/>
<path d="M121.225 103.74C121.19 103.901 121.19 104.021 121.225 104.181C121.363 104.501 121.71 104.461 122.022 104.261C122.16 104.221 122.299 104.181 122.472 104.101C124.031 103.58 127.254 102.339 129.714 102.86C129.853 102.9 129.956 102.9 130.06 102.9C131.342 103.66 132.521 104.742 132.521 104.742L132.313 104.822C133.006 105.662 133.352 106.383 133.352 106.383C133.352 106.383 137.406 104.581 136.817 103.781C136.228 102.98 135.743 101.138 135.535 99.7364C135.466 99.2559 135.466 98.7353 135.396 98.2548C135.362 97.9345 135.258 97.6141 135.05 97.3739C134.565 96.7332 133.803 96.4529 133.075 96.5731C132.728 96.6531 132.382 96.8133 132.035 96.9334C130.927 97.4139 129.783 97.7743 128.605 97.9745C127.462 98.1347 126.284 98.1347 125.175 98.4951C123.165 99.2559 121.571 101.338 121.225 103.74Z" fill="#40201A"/>
<path d="M121.225 103.741C121.19 103.901 121.19 104.021 121.225 104.181C121.363 104.502 121.71 104.462 122.022 104.262C122.16 104.221 122.299 104.181 122.472 104.101C123.027 101.699 124.69 100.337 126.422 99.897C128.328 99.4165 131.031 99.5366 132.001 98.8159C132.902 98.2153 134.218 98.015 135.396 98.2953C135.362 97.975 135.258 97.6547 135.05 97.4144C134.565 96.7738 133.803 96.4935 133.075 96.6136C132.728 96.6937 132.382 96.8538 132.035 96.974C130.927 97.4545 129.783 97.8148 128.605 98.015C127.462 98.1752 126.284 98.1752 125.175 98.5356C123.165 99.2563 121.571 101.338 121.225 103.741Z" fill="#FF8F40"/>
<path d="M148.252 86.8828C151.163 94.5708 152.722 102.939 152.722 111.308C152.722 113.751 152.618 116.273 151.994 118.636C151.752 119.517 151.44 120.438 150.886 121.078C150.262 121.799 149.396 122.159 148.564 122.48C147.594 122.88 146.624 123.24 145.654 123.641C145.446 123.721 145.203 123.801 144.995 123.721C144.857 123.681 144.753 123.521 144.649 123.401C141.946 120.157 139.451 116.754 137.164 113.11C136.922 112.71 136.645 112.309 136.575 111.829C136.471 111.348 136.575 110.828 136.679 110.347C137.511 105.862 138.1 101.258 139.659 97.0133C141.218 92.7689 143.886 88.8448 147.629 87.2832" fill="#424F87"/>
<path d="M146.623 96.8931C146.069 107.384 141.634 117.555 134.634 124.282C133.699 125.202 132.521 126.083 131.343 125.683C129.783 125.162 129.368 122.84 129.368 120.958C129.333 112.75 131.169 104.581 134.288 97.1734C135.016 95.4116 135.986 93.5297 137.614 92.929C139.174 92.3685 140.837 93.1693 142.327 93.9701C143.886 94.851 145.411 95.7319 146.935 96.6529" fill="#5563A3"/>
<path d="M138.966 96.0114C138.204 97.7733 137.719 99.6953 137.268 101.577C136.748 103.659 136.159 105.661 135.397 107.664C134.704 109.465 133.873 111.227 132.972 112.909C132.175 114.35 130.754 115.872 130.789 117.674C130.789 118.074 131.343 118.074 131.343 117.674C131.343 116.593 131.932 115.792 132.417 114.951C132.902 114.15 133.387 113.309 133.838 112.469C134.669 110.907 135.397 109.265 136.021 107.543C137.372 103.86 137.892 99.8554 139.243 96.1716C139.243 95.9714 139.035 95.8112 138.966 96.0114Z" fill="#424F87"/>
<path d="M144.787 61.2163C149.118 70.4659 151.474 80.7966 153.796 90.9672C153.865 91.2875 153.934 91.6078 153.865 91.8881C153.796 92.2485 153.518 92.5288 153.276 92.769C151.543 94.5709 149.707 96.3728 147.524 97.2537C142.326 99.3358 136.609 95.612 131.169 96.613C132.243 92.4487 133.248 87.7638 131.516 83.8798C130.892 82.5184 129.956 81.3172 129.645 79.8356C129.437 78.9147 129.506 77.9136 129.333 76.9927C128.813 74.1497 126.249 72.1477 126.145 69.2647C126.041 67.1024 127.462 65.1404 129.16 64.2995C130.857 63.4586 132.832 63.5387 134.669 63.8991C136.679 64.2995 138.965 65.0203 140.629 63.6589C141.703 62.7779 142.396 61.1763 143.712 60.936" fill="#D16236"/>
<path d="M148.841 64.3401C148.772 64.3401 148.806 64.5003 148.876 64.5003C148.945 64.5003 148.98 64.4202 149.014 64.3401C150.435 61.4171 151.682 58.3339 152.479 55.0905C152.687 54.2897 152.86 53.4889 152.964 52.688C153.068 51.8872 153.068 51.0463 153.103 50.2455C153.172 46.5216 153.242 42.7978 153.311 39.0339C152.514 38.8737 151.717 38.8737 150.92 38.9938C150.643 41.6366 150.331 44.2793 150.054 46.9621C149.95 47.7629 149.881 48.5637 149.638 49.3245C149.43 49.9652 149.084 50.5658 148.772 51.1664C147.074 54.2096 145.411 57.2528 143.713 60.2559" fill="#DCAF8C"/>
<path d="M121.537 61.8173C119.146 60.4158 116.617 59.3748 113.983 58.694C113.29 58.5339 112.632 58.3737 111.974 58.0934C110.761 57.6129 109.721 56.732 108.647 55.8911C106.603 54.2895 104.455 52.848 102.237 51.5266C101.301 51.0061 100.123 50.5256 99.361 51.3264C99.1531 51.5667 98.9799 51.927 99.0838 52.2474C99.1185 52.4075 99.2224 52.5277 99.2917 52.6478C102.93 57.653 108.612 59.8553 113.429 63.2588C114.434 63.9795 115.404 64.7403 116.409 65.4611C118.869 67.1828 121.572 68.4241 124.343 69.225" fill="#DCAF8C"/>
<path d="M152.41 41.4354C153.311 40.6346 153.97 39.5134 154.281 38.2321C154.351 37.9118 154.42 37.5514 154.351 37.2311C154.281 36.7506 154.039 36.3502 153.9 35.9097C153.588 35.0688 153.519 34.1078 153.762 33.2269C153.935 32.6263 154.212 32.0257 154.177 31.4251C153.415 31.5852 152.757 32.346 152.618 33.267C151.891 32.1858 152.965 30.5842 152.653 29.2628C152.306 29.2628 152.133 29.7033 152.029 30.1037C151.787 31.1848 151.613 32.306 151.509 33.4271C151.198 32.1058 151.128 30.7043 151.302 29.3829C151.336 29.0226 151.267 28.462 150.955 28.502C150.782 28.5421 150.713 28.7423 150.643 28.9024C150.193 30.2238 150.227 31.6653 150.227 33.0267C149.985 31.7854 149.673 30.5842 149.223 29.3829C148.841 30.2238 148.841 31.2649 148.911 32.2259C149.188 35.5093 150.297 38.6726 152.029 41.3153" fill="#DCAF8C"/>
<path d="M140.767 62.7371L142.985 75.1099C143.92 75.0298 144.717 74.269 145.41 73.5483C146.519 72.3871 147.524 71.1458 148.494 69.8244C149.187 68.9034 149.845 67.9425 150.469 66.9414C150.781 66.4209 151.093 65.9003 151.405 65.3798C151.509 65.1796 151.647 64.9393 151.612 64.6991C151.612 64.5389 151.509 64.3788 151.439 64.2586C149.707 61.4157 147.974 58.5727 146.242 55.7698C146.138 55.6097 146.069 55.4895 145.895 55.4095C145.653 55.3294 145.445 55.6097 145.272 55.8499C143.782 58.1723 142.292 60.4547 140.767 62.7371Z" fill="#D16236"/>
<path d="M117.241 66.3423C118.765 69.5056 121.225 71.9882 123.963 73.7099C126.7 75.4317 129.749 76.4728 132.798 77.2336L142.847 71.6678L145.203 67.3033L144.337 63.2992C144.337 63.2992 142.154 61.7375 141.322 61.9778C141.08 62.0579 140.56 62.2581 139.936 62.5384C138.377 63.2191 136.125 64.2602 135.709 64.1C135.155 63.8998 133.318 63.6195 131.967 63.4193C131.828 63.4193 131.69 63.3792 131.551 63.3792C128.71 63.0589 125.834 63.2191 123.166 61.9778C122.022 61.4572 120.844 60.7765 119.632 60.9768C120.117 61.9778 120.567 62.9788 121.052 63.9799C121.225 64.3402 121.399 64.8207 121.26 65.1811C121.121 65.5415 120.775 65.6616 120.429 65.7817C119.424 66.1021 118.315 66.3023 117.241 66.3423Z" fill="#D16236"/>
<path d="M131.412 66.2619C131.758 66.7024 132.278 66.8225 132.798 66.9026C133.699 67.0227 134.634 66.9427 135.501 67.3431C136.055 67.6234 136.505 68.0638 137.06 68.3441C138.03 68.8246 139.173 68.7045 140.144 68.224C140.352 68.1439 140.559 68.0238 140.698 67.8236C141.01 67.4231 141.045 66.8225 140.871 66.302C140.733 65.7814 140.421 65.381 140.178 64.9005C139.936 64.4601 139.693 63.9395 139.693 63.419C139.693 63.0987 139.832 62.7783 140.005 62.5381C138.446 63.2188 136.194 64.2599 135.778 64.0997C135.223 63.8995 133.387 63.6192 132.036 63.419V63.459C131.966 63.8995 131.551 64.1798 131.343 64.5402C130.996 65.1007 131.031 65.8215 131.412 66.2619Z" fill="#DCAF8C"/>
<path d="M134.704 63.4185L136.61 67.5428C136.61 67.5428 139.209 65.7008 139.382 63.899C139.555 62.0571 134.704 63.4185 134.704 63.4185Z" fill="#CC8D6D"/>
<path d="M141.634 52.5275C142.189 55.0901 142.223 57.813 141.738 60.4157C141.461 61.9773 140.872 63.659 139.659 64.4599C139.001 64.9003 138.239 65.0204 137.476 65.0204C136.298 65.0204 135.051 64.62 134.219 63.659C133.63 62.9783 133.318 62.0574 133.076 61.1364C132.695 59.4547 132.625 57.7329 132.625 56.0111C132.591 54.2493 132.695 52.2872 133.838 51.126C134.67 50.3252 135.848 50.165 136.922 50.165C137.996 50.165 139.105 50.3252 140.041 50.9258C140.976 51.5265 141.738 52.6476 141.738 53.8889" fill="#DCAF8C"/>
<path d="M140.456 53.1674C139.347 54.8491 137.476 55.8101 135.64 55.6099C135.536 55.6099 135.397 55.5698 135.328 55.4898C135.085 55.2495 135.258 54.769 135.501 54.5688C135.743 54.3286 136.09 54.1684 136.194 53.8481C134.254 54.5688 132.14 54.6489 130.13 54.0483C129.333 53.808 128.536 53.4476 128.017 52.7269C127.809 52.4466 127.67 52.0462 127.878 51.7659C127.982 51.6057 128.19 51.6057 128.363 51.5657C128.848 51.5257 129.299 51.4456 129.784 51.4055C128.224 50.8449 127.289 48.5626 127.947 46.8408C128.71 47.5215 129.61 48.0821 130.546 48.4024C130.234 47.8819 130.165 47.1211 130.581 46.7207C130.996 46.3203 131.655 46.6005 132.105 46.9609C132.556 47.3213 133.041 47.8018 133.561 47.7217C133.457 47.4014 133.318 47.041 133.214 46.7207C133.179 46.6406 133.145 46.5605 133.179 46.4804C133.214 46.12 133.665 46.2802 133.942 46.4404C134.947 47.2412 136.194 47.6817 137.407 47.7217C137.892 47.7217 138.377 47.6817 138.862 47.8819C139.52 48.1221 140.005 48.7628 140.421 49.3634C140.698 49.7638 140.976 50.1242 141.114 50.6047C141.253 51.0852 141.253 51.6458 140.976 52.0062" fill="#5F3326"/>
<path d="M140.699 50.0854C141.08 49.6049 141.565 49.0844 142.12 49.1645C142.639 49.2445 142.986 49.7651 143.159 50.3257C143.332 50.8462 143.402 51.4068 143.402 51.9674C143.367 52.2877 143.332 52.6481 143.367 52.9684C143.436 53.2887 143.575 53.569 143.679 53.8493C144.06 54.8504 143.991 55.9715 143.714 57.0126C143.436 58.0537 142.328 59.375 141.808 60.296C141.843 58.1738 141.704 56.5321 141.357 54.8904C141.219 54.2497 140.976 53.4889 140.422 53.3688" fill="#5F3326"/>
<path d="M130.893 52.2466C130.442 53.4078 130.2 54.7292 130.234 56.0105C130.234 56.4109 130.304 56.8514 130.442 57.2518C130.685 57.8924 131.204 58.3329 131.378 58.9735C131.447 59.2538 131.447 59.4941 131.447 59.7744C131.551 60.6953 133.283 61.7364 133.283 61.7364C133.283 61.7364 132.105 56.2908 133.422 52.2866" fill="#5F3326"/>
<path d="M100.817 51.0067C100.886 50.1258 101.198 49.325 101.094 48.5642C101.128 47.8835 101.198 47.1627 101.406 46.5221C101.648 45.8414 102.064 45.2007 102.653 44.9604C101.752 47.5231 103.103 50.6063 102.133 53.1289L101.302 53.9297C100.955 53.0488 100.747 52.0878 100.817 51.0067Z" fill="#DCAF8C"/>
<path d="M101.613 48.8436C101.613 48.8436 96.6583 43.9986 96.1385 44.6793C96.0692 44.7594 96.6929 45.4001 96.7276 45.4802C97.5938 46.5613 99.5689 48.4432 99.3263 48.7636C99.0838 49.0839 94.8218 45.1999 94.4407 45.6403C94.3714 45.8405 94.51 46.0407 94.6486 46.2009C95.792 47.5223 98.2175 49.9648 98.0789 50.165C97.9403 50.3652 94.3368 47.5223 94.0249 48.1229C94.0249 48.243 94.1289 48.3231 94.1982 48.4032C95.203 49.3642 97.3166 51.166 97.2473 51.3262C97.178 51.4864 95.203 50.4853 95.0644 50.7656C94.9258 51.0059 99.0491 53.969 100.712 54.5295C101.267 54.6897 102.653 52.7677 102.549 52.047C102.445 51.2862 101.613 48.8436 101.613 48.8436Z" fill="#DCAF8C"/>
<path d="M149.846 92.3279C147.386 92.9686 144.822 92.9686 142.361 92.3279C141.391 92.0877 140.386 91.6873 139.763 90.8064C141.045 90.1657 142.223 89.2047 143.193 88.0835C143.366 87.8833 143.505 87.6431 143.436 87.4028C143.366 87.2026 143.193 87.1225 143.054 87.0425C141.01 86.1615 138.758 85.8412 136.817 84.72C134.704 83.5188 133.041 81.4366 131.447 79.4346C132.244 81.1163 133.006 82.8381 133.803 84.5198C134.288 85.5209 134.739 86.6821 134.496 87.8032C134.323 88.4839 133.872 89.0846 133.942 89.8053C134.011 90.8464 135.154 91.6472 134.946 92.6483C134.808 93.2489 134.253 93.9696 134.704 94.33C134.842 94.4501 135.05 94.4501 135.224 94.4501C136.402 94.4902 137.51 95.0908 138.689 95.4111C141.946 96.3321 145.272 94.8906 148.391 93.4891C148.98 93.2088 149.603 92.9286 150.054 92.368" fill="#BF512B"/>
<path d="M146.97 65.8611C146.97 66.2215 147.108 66.5418 147.247 66.8622C147.663 67.8232 148.079 68.8242 148.494 69.7852C149.187 68.8642 149.846 67.9032 150.469 66.9022C149.672 64.8201 148.668 62.858 147.489 61.0161C147.732 62.2574 147.628 63.6188 147.247 64.78C147.108 65.1804 146.97 65.5008 146.97 65.8611Z" fill="#BF512B"/>
<path d="M182.478 48.6579C183.244 49.1969 184.244 49.0044 185.077 48.6194C185.876 48.2729 186.642 47.811 187.175 47.041C187.708 46.3095 188.008 45.2701 187.742 44.3076C187.509 43.4221 186.776 42.6137 187.042 41.7282C187.242 40.9967 188.008 40.6887 188.475 40.1498C188.908 39.6493 189.108 38.9563 189.108 38.3018C189.174 37.0314 188.641 35.7224 187.775 34.914C187.509 34.683 187.242 34.4905 187.009 34.221C186.609 33.7205 186.442 33.0275 186.609 32.373C186.176 32.6425 185.743 32.912 185.276 33.066C182.878 33.8745 180.279 32.0266 177.881 32.7965C177.681 32.8735 177.514 32.9505 177.381 33.066C176.948 33.4895 177.014 34.2595 176.748 34.837C176.515 35.3374 176.082 35.6839 175.615 35.9149C175.149 36.1459 174.682 36.2999 174.249 36.5694C173.25 37.2239 172.65 38.5713 172.55 39.8803C172.484 41.2277 172.85 42.5367 173.45 43.6916C173.716 44.1921 173.983 44.6541 174.383 45.0391C175.349 45.9245 176.715 46.04 177.647 46.964" fill="#D16236"/>
<path d="M179.513 110.333C186.542 108.138 197.969 103.865 200.068 104.519C202.167 105.174 199.935 98.783 199.935 98.783C199.935 98.783 198.602 100.169 197.936 99.938C192.939 98.167 187.742 97.1276 182.511 96.8196C180.979 96.7426 179.413 96.7041 178.047 97.5511C176.715 98.398 175.782 100.323 176.415 101.94" fill="#7C3929"/>
<path d="M158.258 23.8272C158.258 23.8272 158.525 27.9465 158.725 29.91C158.825 31.0264 158.791 32.1429 158.991 33.2593C159.291 34.9148 160.157 36.3777 161.09 37.7252C162.256 39.4191 163.555 41.036 164.921 42.499C166.52 45.2324 168.419 47.8503 169.052 51.0842C169.485 53.2016 169.285 55.396 168.752 57.4749C173.083 57.4749 177.481 55.6655 181.045 52.6626C179.346 51.0457 177.414 49.6982 175.615 48.2353C172.684 45.8098 170.018 42.9225 167.786 39.6501L167.82 39.4961C167.953 36.1082 166.853 32.6818 164.821 30.2564C164.355 29.679 163.822 29.14 163.322 28.5625C162.123 27.0996 161.223 25.3671 160.324 23.5962C159.158 23.8657 158.258 23.8272 158.258 23.8272Z" fill="#934A35"/>
<path d="M169.086 51.0843C168.486 48.1199 166.82 45.656 165.321 43.1536C165.455 42.6531 165.654 42.1912 165.921 41.7677C166.487 40.8437 167.22 40.3047 168.086 40.0737C170.285 43.1536 172.817 45.9255 175.649 48.2354C177.448 49.7369 179.38 51.0458 181.079 52.6628C177.481 55.6656 173.117 57.4751 168.786 57.4751C169.286 55.3577 169.486 53.2017 169.086 51.0843Z" fill="#5563A3"/>
<path d="M182.81 73.1445C185.742 75.0694 187.108 79.2657 186.975 83.1926C186.841 87.0809 185.442 90.7768 184.076 94.3187C182.677 97.8605 181.244 101.518 180.945 105.406C180.911 105.984 180.878 106.6 180.611 107.1C180.445 107.447 180.145 107.755 179.879 107.986C178.779 109.064 177.68 110.142 176.58 111.22C176.381 111.412 176.181 111.605 175.914 111.643C175.414 111.682 175.081 111.104 174.881 110.604C170.217 99.131 169.784 85.4255 173.782 73.6449C173.949 73.1445 174.148 72.644 174.482 72.336C174.815 72.0665 175.215 71.9895 175.614 71.9125C177.846 71.566 180.145 71.7585 182.311 72.4515" fill="#934A35"/>
<path d="M195.471 49.0442C197.17 46.2723 199.868 44.3859 202.8 43.9239C203.5 43.8084 204.199 43.7699 204.866 43.6929C206.598 43.4234 208.23 42.6919 209.863 41.9604C210.629 43.0384 211.362 43.6544 211.362 43.6544C211.362 43.6544 208.93 46.6958 207.731 48.0817C207.064 48.8902 206.465 49.7757 205.732 50.5071C204.599 51.5851 203.133 52.1241 201.701 52.5091C198.869 53.279 195.971 53.664 193.105 53.6255" fill="#934A35"/>
<path d="M168.519 60.7461C168.519 60.7846 168.519 60.8231 168.519 60.8231C168.752 63.1715 169.552 65.4429 170.451 67.5604C171.484 70.0243 172.683 72.3727 174.016 74.6056C174.116 74.7981 174.216 74.9521 174.349 75.1446L183.91 76.107C183.344 72.4112 183.477 68.5228 184.344 64.904C185.043 61.9781 186.242 59.1292 188.275 57.2042C190.54 55.0868 193.538 54.4324 196.303 53.3929C196.337 53.3929 196.37 53.3544 196.403 53.3544C196.437 52.4304 196.403 51.545 196.237 50.621C196.104 50.0435 195.937 49.543 195.704 49.0811C192.106 50.082 188.375 50.467 184.677 50.236C184.21 50.1975 183.777 50.159 183.311 50.1205C181.145 49.928 178.947 49.6585 176.781 49.8895C176.215 49.9665 175.648 50.0435 175.115 50.1975C173.083 50.7365 171.151 51.8914 169.918 53.8164C168.652 55.8183 168.286 58.3592 168.519 60.7461Z" fill="#5563A3"/>
<path d="M168.52 60.8638C168.753 63.2122 169.552 65.4836 170.452 67.601C171.485 70.0649 172.684 72.4133 174.016 74.6462C174.083 74.7232 174.15 74.7617 174.25 74.8387C174.25 73.9918 174.783 73.2988 175.416 72.8753C176.015 72.4518 176.715 72.2208 177.348 71.8359C179.247 70.6424 180.246 68.14 181.079 65.8301L180.846 64.9446C179.747 65.6376 178.314 65.4451 177.348 64.5596C176.448 63.7127 175.982 62.3652 174.949 61.7492C173.55 60.9408 171.851 61.9802 170.285 61.7107C169.652 61.5952 169.086 61.2873 168.52 60.8638Z" fill="#49588E"/>
<path d="M159.657 21.7872C159.923 21.0173 160.39 20.4398 160.49 19.7468C160.69 19.1693 160.923 18.5534 161.256 18.0529C161.622 17.5139 162.156 17.1289 162.722 17.1289C161.323 19.0538 161.756 22.2107 160.29 24.0971L159.39 24.5591C159.29 23.6352 159.324 22.7112 159.657 21.7872Z" fill="#934A35"/>
<path d="M160.423 20.4402C160.423 20.4402 157.258 14.6269 156.659 15.0504C156.592 15.0889 156.959 15.8589 156.992 15.9358C157.492 17.1678 158.758 19.4392 158.458 19.6317C158.158 19.8242 155.393 15.0504 154.96 15.3199C154.86 15.4739 154.926 15.7049 154.993 15.8589C155.659 17.3988 157.192 20.3247 157.025 20.4402C156.859 20.5557 154.393 16.8983 153.994 17.3603C153.994 17.4758 154.027 17.5528 154.094 17.6683C154.76 18.8617 156.159 21.0947 156.059 21.2101C155.959 21.3256 154.493 19.8242 154.293 20.0167C154.094 20.2092 156.992 24.136 158.325 25.0985C158.758 25.4065 160.457 24.1745 160.523 23.5201C160.523 22.8656 160.423 20.4402 160.423 20.4402Z" fill="#934A35"/>
<path d="M175.082 50.2369L175.582 55.7807L183.277 50.1599C181.112 49.9674 178.913 49.6979 176.748 49.9289C176.215 50.0059 175.648 50.0829 175.082 50.2369Z" fill="#934A35"/>
<path d="M176.648 48.2734C176.648 48.4274 176.914 52.9703 176.914 52.9703C176.914 52.9703 179.513 51.7768 180.279 50.0829" fill="#7C3929"/>
<path d="M185.276 41.6896C185.076 42.498 184.843 43.268 184.643 44.0765C184.11 46.0399 183.577 48.0803 182.378 49.5818C181.179 51.0832 179.146 51.8917 177.581 50.8907C176.115 49.9668 175.615 47.8493 175.415 45.9244C175.249 44.2305 175.215 42.498 175.682 40.8811C176.148 39.2642 177.148 37.8012 178.547 37.2237C180.246 36.5693 182.178 37.3777 183.444 38.8407C184.244 39.7646 184.843 40.9196 184.91 42.2286C184.976 43.73 184.31 45.1544 183.677 46.5019" fill="#934A35"/>
<path d="M183.577 72.0278C183.577 72.0278 181.079 73.9528 178.014 74.0683C174.949 74.2223 172.917 73.3753 172.917 73.3753C172.917 73.3753 171.251 77.4946 170.318 81.0365C169.385 84.5784 169.252 90.7381 169.252 90.7381C169.252 90.7381 173.15 92.3936 178.247 91.5466C183.344 90.7381 184.976 90.7381 187.009 88.3897C189.007 86.0798 190.207 85.9258 190.207 85.9258C190.207 85.9258 190.074 74.6457 183.577 72.0278Z" fill="#40201A"/>
<path d="M198.403 99.3993C198.536 99.6688 198.736 99.8998 199.036 100.208C199.536 100.708 200.135 101.209 200.468 101.902C201.035 103.095 200.468 104.058 199.602 104.635C200.868 105.559 202.401 106.137 203.667 107.099C204.733 107.908 205.632 109.062 206.232 110.371C206.232 110.371 206.232 110.371 206.232 110.41C206.365 110.679 206.498 110.949 206.731 110.949C207.031 110.949 207.198 110.564 207.265 110.217C207.731 108.062 207.531 105.713 206.698 103.673C206.065 102.171 205.132 100.901 204.2 99.6303C203.467 98.6294 202.634 96.6274 202.001 96.6274C201.801 96.6274 201.468 96.8584 201.068 97.1664C200.302 97.7824 199.236 98.8604 198.403 99.3993Z" fill="#FF8F40"/>
<path d="M204.132 101.285C205.132 102.479 206.631 106.598 206.398 109.023C206.331 109.562 206.298 109.986 206.231 110.332C206.231 110.332 206.231 110.332 206.231 110.371C206.364 110.64 206.498 110.91 206.731 110.91C207.031 110.91 207.197 110.525 207.264 110.178C207.73 108.022 207.53 105.674 206.698 103.634C206.065 102.132 205.132 100.862 204.199 99.5913C203.466 98.5903 202.633 96.5884 202 96.5884C201.8 96.5884 201.467 96.8194 201.067 97.1274C201.767 98.1283 203.333 100.361 204.132 101.285Z" fill="#EFD9CB"/>
<path d="M213.927 40.3808L213.994 40.5733L214.161 41.1508L213.994 41.9208C213.994 41.9208 212.328 44.8852 210.829 43.8457C209.33 42.8063 210.663 40.1114 210.663 40.1114L213.194 39.3799" fill="#823E2E"/>
<path d="M210.262 39.3791C211.295 37.4927 214.093 34.1048 214.626 34.6438C214.693 34.6823 214.227 35.4138 214.193 35.4908C213.56 36.6457 212.028 38.6861 212.294 38.9171C212.561 39.1866 215.892 34.8748 216.292 35.1828C216.392 35.3368 216.259 35.5678 216.192 35.7218C215.493 36.9152 214.06 38.9556 213.727 39.6871C213.027 40.1106 212.428 41.381 211.961 42.074C211.595 42.6515 211.162 43.229 210.795 43.845C210.295 43.4215 209.829 42.8055 209.862 42.4205C209.862 41.766 209.229 41.2656 210.262 39.3791Z" fill="#823E2E"/>
<path d="M209.829 42.2683L208.863 40.1124L210.495 38.1489C210.495 38.1489 211.528 39.6889 211.994 39.9199C212.461 40.1509 211.661 40.4203 211.062 40.1124C210.429 39.8044 210.495 39.6889 210.495 39.6889C210.495 39.6889 211.561 40.3433 211.428 41.6138C211.261 42.9227 209.829 42.2683 209.829 42.2683Z" fill="#934A35"/>
<path d="M214.259 39.6879C214.259 39.6879 211.161 39.6109 211.061 40.1499C210.961 40.6888 213.959 40.8043 213.959 40.8043C213.959 40.8043 215.025 40.3039 214.259 39.6879Z" fill="#934A35"/>
<path d="M214.06 40.9199C214.06 40.9199 214.393 41.6129 214.06 41.9979C213.727 42.3829 211.128 42.2289 211.195 41.5744C211.261 40.9199 214.06 40.9199 214.06 40.9199Z" fill="#934A35"/>
<path d="M186.075 32.9518C185.476 32.1818 184.843 31.2963 184.776 30.2569C184.71 28.8709 185.676 27.639 186.808 27.177C187.941 26.715 189.174 26.8305 190.373 26.946C191.239 27.023 192.239 27.0615 192.905 26.3685C194.071 25.1366 193.238 22.6342 194.304 21.2867C194.737 20.7092 195.437 20.4782 196.103 20.4397C197.103 20.3627 198.102 20.6707 198.868 21.4022C199.635 22.1337 200.134 23.2501 200.034 24.4051C199.501 23.7121 198.635 22.9806 197.969 23.5196C197.436 23.9816 197.536 24.9441 197.935 25.56C198.302 26.176 198.868 26.638 199.235 27.254C200.001 28.7169 199.335 30.7188 198.202 31.8353C197.169 32.8748 195.77 33.4137 194.404 33.3367C192.005 33.1828 189.873 31.2578 187.508 31.3348C187.308 31.3348 187.108 31.3733 186.942 31.4888C186.775 31.6043 186.642 31.8353 186.542 32.0663C186.275 32.6823 186.109 33.3367 186.075 34.0297" fill="#D16236"/>
<path d="M184.344 48.2366C184.011 48.0056 183.777 47.5437 183.677 47.0817C183.578 46.6197 183.578 46.1577 183.578 45.6572C183.578 44.6563 183.578 43.5783 183.877 42.6544C183.578 42.8853 183.178 42.9623 182.811 43.0008C180.812 43.1548 178.78 41.8459 177.847 39.767C177.814 40.6909 177.548 41.6149 177.115 42.3849C176.915 42.7698 176.615 43.1163 176.282 43.2703C175.915 43.4628 175.482 43.4243 175.182 43.1163C174.882 42.7698 174.849 42.2309 174.849 41.7304C174.849 41.2684 174.849 40.8449 174.949 40.4214C175.182 39.4975 175.782 38.8045 176.415 38.1115C176.848 37.6495 177.281 37.1491 177.781 36.8026C179.047 35.8401 180.679 35.5321 182.178 35.9171C183.677 36.3021 185.043 37.2646 186.043 38.612" fill="#D16236"/>
<path d="M92.3821 13.5686L91.3697 12.4675L90 12.1922L90.9528 11.0223L91.191 9.43945L92.2034 10.5406L93.5731 10.8158L92.6501 11.9858L92.3821 13.5686Z" fill="#D16236"/>
<path d="M224.596 13.7751L223.286 12.089L221.41 11.5041L222.869 9.99006L223.405 7.82227L224.685 9.50833L226.561 10.1277L225.102 11.6073L224.596 13.7751Z" fill="#D16236"/>
<path d="M224.566 25.5778L224.745 23.1347L223.792 21.0013L225.876 21.2078L227.752 20.0723L227.574 22.4809L228.556 24.6487L226.442 24.4423L224.566 25.5778Z" fill="#5563A3"/>
<path d="M101.077 23.1691L98.6647 21.6206L95.9253 21.7927L97.2652 19.0399L97.1163 15.8398L99.4984 17.3883L102.268 17.2162L100.928 20.0034L101.077 23.1691Z" fill="#FF8F40"/>
<path d="M102.774 12.0544L102.595 10.6092L101.761 9.54248L103.012 9.33602L103.965 8.37256L104.143 9.81776L104.947 10.9189L103.697 11.1253L102.774 12.0544Z" fill="#5563A3"/>
<path d="M121.301 30.6005L116.417 21.3443C116.06 20.6561 116.239 19.7615 116.834 19.3486C117.43 18.9357 118.204 19.1421 118.561 19.8303C118.621 19.9335 118.65 20.0368 118.68 20.14L121.539 30.4629C121.568 30.5317 121.509 30.6349 121.449 30.6693C121.39 30.7037 121.33 30.6693 121.301 30.6005Z" fill="#8D9AD6"/>
<path d="M125.052 28.7763L123.921 17.9373C123.861 17.2492 124.278 16.5954 124.874 16.5266C125.469 16.4577 126.035 16.9395 126.094 17.6277C126.094 17.6965 126.094 17.7997 126.094 17.8685L125.32 28.7419C125.32 28.8452 125.261 28.8796 125.171 28.8796C125.112 28.914 125.052 28.8452 125.052 28.7763Z" fill="#8D9AD6"/>
</g>
<defs>
<clipPath id="clip0_873_2617">
<rect width="225" height="102" fill="white"/>
</clipPath>
</defs>
</svg>
