<svg width="57" height="29" viewBox="0 0 57 29" fill="none" xmlns="http://www.w3.org/2000/svg">
<g clip-path="url(#clip0_2391_3257)">
<path d="M44.1962 11.4281V5.58386L43.2961 5.88909V11.4281H44.1962Z" fill="#003366"/>
<path d="M17.9485 7.40634L28.3586 10.8896L38.7687 7.40634L43.2964 5.88916L44.1965 5.58393L44.6693 5.42234L28.3586 0L12.0388 5.42234L17.9485 7.40634Z" fill="#1D925B"/>
<path d="M42.6782 12.7928V16.2042C42.6782 16.7877 43.151 17.2545 43.7419 17.2545C44.3329 17.2545 44.8057 16.7787 44.8057 16.2042V12.7928C44.8057 12.5055 44.6875 12.2452 44.4966 12.0566H42.9782C42.7873 12.2452 42.6691 12.5055 42.6691 12.7928H42.6782Z" fill="#003366"/>
<path d="M42.8514 11.4282V12.0566H42.9877H44.5061H44.6424V11.4282H44.1969H43.2969H42.8514Z" fill="#1D925B"/>
<path d="M38.7698 9.05811L28.6506 12.4426C28.5597 12.4785 28.4597 12.4875 28.3597 12.4875C28.2596 12.4875 28.1596 12.4695 28.0687 12.4426L17.9495 9.05811V21.5636H17.9586L17.9314 21.6803C17.9314 22.6768 22.5955 24.9032 28.3506 24.9032C34.1057 24.9032 38.7516 22.6768 38.7516 21.6803L38.7243 21.5636H38.7607V9.05811H38.7698Z" fill="#1D925B"/>
</g>
<rect y="19.0902" width="56.8548" height="9" rx="1.71371" fill="#FEC601"/>
<path d="M5.08941 25.1622C4.56141 25.1622 4.03941 24.9822 3.63141 24.5922L4.12341 23.9862C4.39941 24.2262 4.77741 24.3582 5.10741 24.3582C5.46141 24.3582 5.62341 24.2262 5.62341 24.0162C5.62341 23.7882 5.41341 23.7162 5.07141 23.5782L4.57341 23.3622C4.15941 23.2002 3.78141 22.8582 3.78141 22.2942C3.78141 21.6402 4.36941 21.1122 5.19741 21.1122C5.66541 21.1122 6.12741 21.2862 6.46341 21.5982L5.97741 22.2042C5.71341 22.0182 5.44341 21.9162 5.19741 21.9162C4.90941 21.9162 4.72341 22.0302 4.72341 22.2342C4.72341 22.4622 4.96941 22.5402 5.31741 22.6782L5.80341 22.8762C6.28941 23.0682 6.57741 23.3922 6.57741 23.9382C6.57741 24.5922 6.03141 25.1622 5.08941 25.1622ZM8.46512 25.1622C7.62512 25.1622 6.98312 24.5862 6.98312 23.5962C6.98312 22.6062 7.72112 22.0362 8.54912 22.0362C8.91512 22.0362 9.19712 22.1622 9.41912 22.3542L8.98712 22.9242C8.84912 22.8222 8.73512 22.7802 8.60312 22.7802C8.18912 22.7802 7.93112 23.1042 7.93112 23.5962C7.93112 24.0942 8.20712 24.4122 8.57312 24.4122C8.77112 24.4122 8.93912 24.3402 9.08912 24.2262L9.44912 24.8082C9.16112 25.0722 8.78312 25.1622 8.46512 25.1622ZM9.96362 25.0902V20.8962H10.8876V21.9042L10.8456 22.4382C11.0676 22.2402 11.3556 22.0362 11.7636 22.0362C12.4116 22.0362 12.6876 22.4982 12.6876 23.2422V25.0902H11.7576V23.3622C11.7576 22.9482 11.6496 22.8222 11.4096 22.8222C11.1996 22.8222 11.0736 22.9242 10.8876 23.0922V25.0902H9.96362ZM14.7048 25.1622C13.9488 25.1622 13.2468 24.5862 13.2468 23.5962C13.2468 22.6062 13.9488 22.0362 14.7048 22.0362C15.4668 22.0362 16.1688 22.6062 16.1688 23.5962C16.1688 24.5862 15.4668 25.1622 14.7048 25.1622ZM14.7048 24.4122C15.0528 24.4122 15.2148 24.0942 15.2148 23.5962C15.2148 23.1042 15.0528 22.7802 14.7048 22.7802C14.3568 22.7802 14.1948 23.1042 14.1948 23.5962C14.1948 24.0942 14.3568 24.4122 14.7048 24.4122ZM18.0446 25.1622C17.2886 25.1622 16.5866 24.5862 16.5866 23.5962C16.5866 22.6062 17.2886 22.0362 18.0446 22.0362C18.8066 22.0362 19.5086 22.6062 19.5086 23.5962C19.5086 24.5862 18.8066 25.1622 18.0446 25.1622ZM18.0446 24.4122C18.3926 24.4122 18.5546 24.0942 18.5546 23.5962C18.5546 23.1042 18.3926 22.7802 18.0446 22.7802C17.6966 22.7802 17.5346 23.1042 17.5346 23.5962C17.5346 24.0942 17.6966 24.4122 18.0446 24.4122ZM20.9405 25.1622C20.3045 25.1622 20.0945 24.7482 20.0945 24.1242V20.8962H21.0185V24.1602C21.0185 24.3522 21.1145 24.4122 21.1865 24.4122C21.2225 24.4122 21.2465 24.4122 21.2945 24.4002L21.4025 25.0842C21.3005 25.1262 21.1445 25.1622 20.9405 25.1622ZM24.3259 25.1622C23.5699 25.1622 22.8679 24.5862 22.8679 23.5962C22.8679 22.6062 23.5699 22.0362 24.3259 22.0362C25.0879 22.0362 25.7899 22.6062 25.7899 23.5962C25.7899 24.5862 25.0879 25.1622 24.3259 25.1622ZM24.3259 24.4122C24.6739 24.4122 24.8359 24.0942 24.8359 23.5962C24.8359 23.1042 24.6739 22.7802 24.3259 22.7802C23.9779 22.7802 23.8159 23.1042 23.8159 23.5962C23.8159 24.0942 23.9779 24.4122 24.3259 24.4122ZM26.5024 25.0902V22.8342H26.1064V22.1382L26.5024 22.1142V21.9882C26.5024 21.3582 26.7964 20.8242 27.6304 20.8242C27.8884 20.8242 28.1044 20.8782 28.2364 20.9322L28.0624 21.5922C27.9604 21.5622 27.8644 21.5502 27.7624 21.5502C27.5584 21.5502 27.4324 21.6642 27.4324 21.9582V22.1082H27.9604V22.8342H27.4324V25.0902H26.5024ZM29.6997 25.0902V21.1842H31.0617C31.8717 21.1842 32.5137 21.4002 32.5137 22.1562C32.5137 22.4982 32.3217 22.8762 32.0037 22.9962V23.0202C32.3997 23.1282 32.7057 23.4162 32.7057 23.9382C32.7057 24.7362 32.0217 25.0902 31.1757 25.0902H29.6997ZM30.6357 22.7382H31.0257C31.4277 22.7382 31.6017 22.5642 31.6017 22.2942C31.6017 22.0122 31.4157 21.8982 31.0317 21.8982H30.6357V22.7382ZM30.6357 24.3762H31.1037C31.5597 24.3762 31.7937 24.2082 31.7937 23.8782C31.7937 23.5482 31.5657 23.4222 31.1037 23.4222H30.6357V24.3762ZM34.1722 25.1622C33.5182 25.1622 33.2422 24.7002 33.2422 23.9562V22.1082H34.1722V23.8362C34.1722 24.2502 34.2802 24.3702 34.5202 24.3702C34.7302 24.3702 34.8562 24.2862 35.0182 24.0642V22.1082H35.9482V25.0902H35.1922L35.1262 24.6822H35.1022C34.8562 24.9762 34.5742 25.1622 34.1722 25.1622ZM37.5998 25.1622C37.2038 25.1622 36.7478 25.0062 36.4478 24.7122L36.8378 24.1902C37.1138 24.4062 37.3838 24.4782 37.6178 24.4782C37.8698 24.4782 37.9718 24.3882 37.9718 24.2442C37.9718 24.0642 37.7198 23.9862 37.4018 23.8662C36.9758 23.7102 36.6158 23.4402 36.6158 22.9782C36.6158 22.4142 37.0718 22.0362 37.7678 22.0362C38.2058 22.0362 38.5778 22.1982 38.8358 22.4142L38.4398 22.9362C38.2238 22.7802 38.0018 22.7202 37.7978 22.7202C37.5818 22.7202 37.4798 22.8042 37.4798 22.9362C37.4798 23.0922 37.6478 23.1642 38.0258 23.2842C38.4818 23.4282 38.8418 23.6982 38.8418 24.1902C38.8418 24.7362 38.4098 25.1622 37.5998 25.1622ZM39.3835 25.0902V22.1082H40.3075V25.0902H39.3835ZM39.8455 21.6882C39.5395 21.6882 39.3235 21.5022 39.3235 21.2082C39.3235 20.9202 39.5395 20.7342 39.8455 20.7342C40.1515 20.7342 40.3675 20.9202 40.3675 21.2082C40.3675 21.5022 40.1515 21.6882 39.8455 21.6882ZM41.0652 25.0902V22.1082H41.8212L41.8872 22.4802H41.9112C42.1572 22.2402 42.4572 22.0362 42.8652 22.0362C43.5132 22.0362 43.7892 22.4982 43.7892 23.2422V25.0902H42.8592V23.3622C42.8592 22.9482 42.7512 22.8222 42.5112 22.8222C42.3012 22.8222 42.1752 22.9242 41.9892 23.0922V25.0902H41.0652ZM45.8604 25.1622C45.0084 25.1622 44.3484 24.5922 44.3484 23.5962C44.3484 22.6302 45.0444 22.0362 45.7584 22.0362C46.6224 22.0362 47.0424 22.6602 47.0424 23.4702C47.0424 23.6382 47.0244 23.7942 47.0064 23.8782H45.2484C45.3324 24.2802 45.6144 24.4542 45.9924 24.4542C46.2084 24.4542 46.4244 24.3882 46.6344 24.2682L46.9344 24.8262C46.6224 25.0482 46.2144 25.1622 45.8604 25.1622ZM45.2364 23.2542H46.2504C46.2504 22.9602 46.1184 22.7382 45.7824 22.7382C45.5184 22.7382 45.2964 22.9062 45.2364 23.2542ZM48.5275 25.1622C48.1315 25.1622 47.6755 25.0062 47.3755 24.7122L47.7655 24.1902C48.0415 24.4062 48.3115 24.4782 48.5455 24.4782C48.7975 24.4782 48.8995 24.3882 48.8995 24.2442C48.8995 24.0642 48.6475 23.9862 48.3295 23.8662C47.9035 23.7102 47.5435 23.4402 47.5435 22.9782C47.5435 22.4142 47.9995 22.0362 48.6955 22.0362C49.1335 22.0362 49.5055 22.1982 49.7635 22.4142L49.3675 22.9362C49.1515 22.7802 48.9295 22.7202 48.7255 22.7202C48.5095 22.7202 48.4075 22.8042 48.4075 22.9362C48.4075 23.0922 48.5755 23.1642 48.9535 23.2842C49.4095 23.4282 49.7695 23.6982 49.7695 24.1902C49.7695 24.7362 49.3375 25.1622 48.5275 25.1622ZM51.2053 25.1622C50.8093 25.1622 50.3533 25.0062 50.0533 24.7122L50.4433 24.1902C50.7193 24.4062 50.9893 24.4782 51.2233 24.4782C51.4753 24.4782 51.5773 24.3882 51.5773 24.2442C51.5773 24.0642 51.3253 23.9862 51.0073 23.8662C50.5813 23.7102 50.2213 23.4402 50.2213 22.9782C50.2213 22.4142 50.6773 22.0362 51.3733 22.0362C51.8113 22.0362 52.1833 22.1982 52.4413 22.4142L52.0453 22.9362C51.8293 22.7802 51.6073 22.7202 51.4033 22.7202C51.1873 22.7202 51.0853 22.8042 51.0853 22.9362C51.0853 23.0922 51.2533 23.1642 51.6313 23.2842C52.0873 23.4282 52.4473 23.6982 52.4473 24.1902C52.4473 24.7362 52.0153 25.1622 51.2053 25.1622Z" fill="#003366"/>
<defs>
<clipPath id="clip0_2391_3257">
<rect width="32.7759" height="28.0902" fill="white" transform="translate(12.0395)"/>
</clipPath>
</defs>
</svg>
