<svg xmlns="http://www.w3.org/2000/svg" width="15.967" height="21.001" viewBox="0 0 15.967 21.001">
    <defs>
        <style>
            .cls-1{fill:#983263}
        </style>
    </defs>
    <g id="stats" transform="translate(-61.362)">
        <path id="Path_33" d="M104.583 339.694h-3.231a.606.606 0 0 0-.606.606v5.856a.606.606 0 0 0 .606.606h3.231a.606.606 0 0 0 .606-.606V340.3a.606.606 0 0 0-.606-.606z" class="cls-1" transform="translate(-37.769 -325.761)"/>
        <path id="Path_34" fill="#ffc300" d="M183.352 280.617h-3.231a.606.606 0 0 0-.606.606v8.277a.606.606 0 0 0 .606.606h3.231a.606.606 0 0 0 .606-.606v-8.279a.606.606 0 0 0-.606-.604z" transform="translate(-113.307 -269.107)"/>
        <path id="Path_35" fill="#bf0637" d="M262.315 209.817l-1.615-.541a.607.607 0 0 0-.385 0l-1.615.541a.606.606 0 0 0-.413.574v10.666a.606.606 0 0 0 .606.606h3.231a.606.606 0 0 0 .606-.606v-10.665a.606.606 0 0 0-.415-.575z" transform="translate(-188.847 -200.663)"/>
        <path id="Path_36" fill="#e30133" d="M260.506 209.245a.605.605 0 0 0-.192.031l-1.615.541a.606.606 0 0 0-.413.574v10.666a.606.606 0 0 0 .606.606h1.615v-12.418z" transform="translate(-188.846 -200.662)"/>
        <path id="Path_37" fill="#f80" d="M185.544 4.1a.606.606 0 0 0-.394-.391l-2.95-.933-1.8-2.522a.606.606 0 0 0-.986 0l-1.8 2.522-2.954.931a.606.606 0 0 0-.3.938l1.84 2.489-.028 3.1a.606.606 0 0 0 .8.58l2.937-.983 2.937.983a.606.606 0 0 0 .8-.58l-.028-3.1 1.842-2.489a.606.606 0 0 0 .084-.545z" transform="translate(-108.244)"/>
        <path id="Path_38" fill="orange" d="M179.9 0a.606.606 0 0 0-.493.254l-1.8 2.522-2.954.931a.606.606 0 0 0-.3.938l1.847 2.489-.028 3.1a.606.606 0 0 0 .8.58l2.937-.983V0z" transform="translate(-108.244)"/>
        <path id="Path_39" fill="#ffdc5b" d="M181.737 280.617h-1.615a.606.606 0 0 0-.606.606v8.277a.606.606 0 0 0 .606.606h1.615z" transform="translate(-113.308 -269.107)"/>
        <path id="Path_40" fill="#c9366b" d="M102.968 339.694h-1.615a.606.606 0 0 0-.606.606v5.856a.606.606 0 0 0 .606.606h1.615z" transform="translate(-37.77 -325.761)"/>
        <path id="Path_41" fill="#672d56" d="M74.891 482.46H61.968a.606.606 0 0 0 0 1.212h12.923a.606.606 0 0 0 0-1.212z" transform="translate(0 -462.671)"/>
        <path id="Path_42" d="M68.43 482.46h-6.462a.606.606 0 0 0 0 1.212h6.462v-1.212z" class="cls-1" transform="translate(0 -462.671)"/>
    </g>
</svg>
